<svg width="512" height="512" xmlns="http://www.w3.org/2000/svg">
  <path fill="#000" d="M256 506V6C117.929 6 6 117.929 6 256s111.929 250 250 250z"/>
  <path fill="#FFF" d="M256.109 506V6c138.071 0 250 111.929 250 250s-111.929 250-250 250z"/>
  <path fill="#E5AA6E" d="M255.516 46.566c-115.427 0-209 93.573-209 209 0 36.868 9.903 71.31 26.3 101.576 20.956 38.683 101.828-109.536 144.96-77.233 43.131 32.302-102.438 137.482-61.992 159.034 29.855 15.908 63.547 25.623 99.732 25.623 115.427 0 209-93.572 209-209s-93.572-209-209-209z"/>
  <path fill="#000" d="M255.516 420.749v-66.107c20.502 0 37.122 14.798 37.122 33.053 0 18.255-16.62 33.054-37.122 33.054z"/>
  <path fill="#FFF" d="M255.516 420.749c-20.502 0-37.122-14.799-37.122-33.054 0-18.255 16.62-33.053 37.122-33.053v66.107z"/>
  <path fill="#FFD469" d="M407.204 292.032c10.76 16.563 5.073 39.39-12.703 50.987-17.777 11.596-40.91 7.57-51.67-8.993-10.761-16.563-5.074-39.391 12.704-50.987 17.775-11.597 40.909-7.57 51.67 8.993z"/>
  <path fill="#0074A8" d="M413.584 173.104c1.362 19.605-14.8 36.673-36.1 38.123-21.3 1.45-39.672-13.267-41.034-32.872-1.362-19.605 14.8-36.673 36.101-38.123 21.3-1.45 39.671 13.267 41.033 32.872z"/>
  <path fill="#FF473E" d="M282.402 123.74c1.348 19.58-18.247 36.872-43.767 38.624-25.521 1.752-47.303-12.7-48.652-32.28-1.349-19.58 18.247-36.873 43.767-38.624 25.521-1.752 47.303 12.7 48.652 32.28z"/>
  <path fill="#009B51" d="M170.514 208.717c1.362 19.605-14.801 36.673-36.101 38.123-21.3 1.45-39.671-13.267-41.033-32.872-1.362-19.605 14.8-36.673 36.1-38.123 21.3-1.45 39.672 13.267 41.034 32.872z"/>
</svg>
